HIERARCHY
ROOT Hips
{
    OFFSET 0.000000 0.000000 0.000000
    CHANNELS 6 Xposition Yposition Zposition Zrotation Xrotation Yrotation
    JOINT Spine
    {
        OFFSET -0.000000 0.068295 0.000000
        CHANNELS 3 Zrotation Xrotation Yrotation
        JOINT Spine1
        {
            OFFSET -0.000000 0.198479 0.000000
            CHANNELS 3 Zrotation Xrotation Yrotation
            JOINT Neck
            {
                OFFSET -0.000000 0.215136 0.000000
                CHANNELS 3 Zrotation Xrotation Yrotation
                JOINT Head
                {
                    OFFSET -0.000000 0.090366 0.016657
                    CHANNELS 3 Zrotation Xrotation Yrotation
                    End Site
                    {
                        OFFSET -0.000000 0.166573 0.000000
                    }
                }
            }
            JOINT LeftShoulder
            {
                OFFSET 0.033522 0.175145 -0.001055
                CHANNELS 3 Zrotation Xrotation Yrotation
                JOINT LeftArm
                {
                    OFFSET 0.121214 0.000000 0.000000
                    CHANNELS 3 Zrotation Xrotation Yrotation
                    JOINT LeftForeArm
                    {
                        OFFSET 0.261115 0.000000 0.000000
                        CHANNELS 3 Zrotation Xrotation Yrotation
                        JOINT LeftHand
                        {
                            OFFSET 0.230096 0.000000 0.000000
                            CHANNELS 3 Zrotation Xrotation Yrotation
                            End Site
                            {
                                OFFSET 0.000000 -0.124930 0.000000
                            }
                        }
                    }
                }
            }
            JOINT RightShoulder
            {
                OFFSET -0.033103 0.175145 -0.001055
                CHANNELS 3 Zrotation Xrotation Yrotation
                JOINT RightArm
                {
                    OFFSET -0.121214 0.000000 0.000000
                    CHANNELS 3 Zrotation Xrotation Yrotation
                    JOINT RightForeArm
                    {
                        OFFSET -0.261115 0.000000 0.000000
                        CHANNELS 3 Zrotation Xrotation Yrotation
                        JOINT RightHand
                        {
                            OFFSET -0.230096 0.000000 0.000000
                            CHANNELS 3 Zrotation Xrotation Yrotation
                            End Site
                            {
                                OFFSET -0.000000 -0.124930 0.000000
                            }
                        }
                    }
                }
            }
        }
    }
    JOINT LeftUpLeg
    {
        OFFSET 0.083287 0.000000 0.000000
        CHANNELS 3 Zrotation Xrotation Yrotation
        JOINT LeftLeg
        {
            OFFSET -0.000000 -0.281128 0.000000
            CHANNELS 3 Zrotation Xrotation Yrotation
            JOINT LeftFoot
            {
                OFFSET -0.000000 -0.491911 0.000000
                CHANNELS 3 Zrotation Xrotation Yrotation
                JOINT LeftToeBase
                {
                    OFFSET -0.000000 -0.054136 0.124930
                    CHANNELS 3 Zrotation Xrotation Yrotation
                    End Site
                    {
                        OFFSET -0.000000 0.000000 0.033315
                    }
                }
            }
        }
    }
    JOINT RightUpLeg
    {
        OFFSET -0.083287 0.000000 0.000000
        CHANNELS 3 Zrotation Xrotation Yrotation
        JOINT RightLeg
        {
            OFFSET -0.000000 -0.281128 0.000000
            CHANNELS 3 Zrotation Xrotation Yrotation
            JOINT RightFoot
            {
                OFFSET -0.000000 -0.491911 0.000000
                CHANNELS 3 Zrotation Xrotation Yrotation
                JOINT RightToeBase
                {
                    OFFSET -0.000000 -0.054136 0.124930
                    CHANNELS 3 Zrotation Xrotation Yrotation
                    End Site
                    {
                        OFFSET -0.000000 0.000000 0.033315
                    }
                }
            }
        }
    }
}
MOTION
Frames:    12
Frame Time:    0.010000
0.021793    0.771328    0.009549    -13.826054    1.833153    -97.553886    -5.213600    12.120464    -3.745964    6.393742    14.356252    -2.231347    0.283848    -16.706358    8.686351    -0.691115    -6.706091    9.019295    -4.168167    4.795223    -5.871616    -30.973135    59.014778    -50.775803    34.117409    -33.734352    -32.170521    105.190582    -9.847774    26.200003    3.077323    0.785308    10.869934    40.357380    54.787724    36.793182    -25.204374    -18.995686    53.561108    -108.819420    -8.842929    -7.822214    3.217454    -4.750113    -0.180293    -5.984882    41.568092    4.975965    9.898955    -16.993052    48.245403    0.000000    0.000000    0.000000    -0.220099    -7.556377    -5.527021    -1.964391    42.886097    0.502645    0.831690    -23.454081    -21.638313    0.000000    0.000000    0.000000    
0.024483    0.780469    0.009950    -12.432433    1.547153    -97.748131    -5.465622    11.202487    -3.906840    6.688367    13.711341    -2.279206    0.099932    -16.943449    8.719770    -0.681724    -6.350040    9.058387    -4.005671    5.147653    -5.445986    -32.914024    58.222816    -48.515366    34.117409    -33.734352    -32.170521    105.190582    -9.847774    26.200003    2.320971    0.583938    10.620065    41.470127    54.077148    35.317593    -25.837143    -17.708448    56.570305    -107.231636    -8.000471    -4.991224    2.939843    -4.115697    -0.358501    -5.949783    37.903458    5.637482    9.789806    -15.202662    48.843090    0.000000    0.000000    0.000000    -0.428195    -6.784952    -5.301342    -1.175024    39.124550    0.230512    0.468889    -22.699310    -22.947054    0.000000    0.000000    0.000000    
0.026183    0.789922    0.010286    -11.286206    1.391639    -97.863831    -5.421762    10.169935    -4.078252    6.641846    13.497517    -2.300883    0.138217    -17.288851    8.820177    -0.592141    -5.894046    9.156557    -3.836143    5.609684    -5.082653    -34.576935    57.294746    -46.342037    34.117409    -33.734352    -32.170521    105.190582    -9.847774    26.200003    1.646126    0.361997    10.323049    42.640911    53.506599    33.883972    -26.370771    -16.848206    59.211803    -106.456642    -6.321790    -2.664296    2.620459    -2.859011    -0.749420    -5.713148    33.552765    6.037576    9.680596    -14.170871    49.804115    0.000000    0.000000    0.000000    -0.317494    -5.473714    -5.544485    -1.077338    34.994507    0.156428    0.176669    -21.703493    -24.282223    0.000000    0.000000    0.000000    
0.027738    0.798897    0.010621    -10.046803    1.271477    -98.102097    -5.336865    9.163763    -4.077804    6.589276    12.951627    -2.245077    0.275890    -17.482550    8.854606    -0.623224    -5.239840    9.193981    -3.796900    5.988482    -4.682823    -35.615864    57.084820    -44.641144    34.117409    -33.734352    -32.170521    105.190582    -9.847774    26.200003    1.075865    0.334012    9.809979    41.892578    55.665634    34.431786    -29.181747    -18.334019    58.805519    -105.931236    -4.718218    -2.382079    2.586221    -2.042111    -1.230318    -6.241601    30.135212    6.629258    9.598639    -11.222610    51.357002    0.000000    0.000000    0.000000    0.019494    -4.236646    -6.143442    -1.519624    30.811243    0.230633    0.359794    -21.129475    -24.664608    0.000000    0.000000    0.000000    
0.029194    0.807022    0.010894    -8.753369    1.126473    -98.488411    -5.193684    7.967580    -3.938244    6.353148    12.482543    -2.124096    0.446908    -17.574759    8.803452    -0.601413    -4.647121    9.137412    -3.771428    6.472880    -4.268748    -36.137520    57.018703    -43.383862    34.117409    -33.734352    -32.170521    105.190582    -9.847774    26.200003    0.611600    0.377282    9.307392    43.850376    53.781536    32.021294    -26.769285    -16.962734    62.563679    -106.458893    -4.169705    -1.134314    2.467454    -0.922547    -1.599088    -6.455382    25.925406    7.411261    9.294171    -9.575893    52.652847    0.000000    0.000000    0.000000    0.444822    -3.221124    -6.728347    -2.016521    26.897072    0.645235    -0.188780    -19.629734    -26.492990    0.000000    0.000000    0.000000    
0.030406    0.814082    0.011251    -7.450233    0.870415    -99.028496    -5.136077    6.653373    -3.611602    6.063915    12.019977    -1.938498    0.595777    -17.869825    8.851512    -0.135118    -3.556119    9.141580    -3.735501    6.741005    -3.924752    -37.133884    57.013786    -41.626385    34.117409    -33.734352    -32.170521    105.190582    -9.847774    26.200003    0.307761    0.751256    8.771008    44.029434    53.685745    31.270697    -26.127207    -17.416454    64.136330    -106.819878    -3.898408    -1.488066    2.270395    -0.049995    -1.776219    -6.786910    22.385962    8.256781    9.438841    -5.488144    54.875286    0.000000    0.000000    0.000000    0.734532    -2.332627    -6.918416    -2.229528    23.201918    0.984805    -1.274172    -17.801594    -29.069513    0.000000    0.000000    0.000000    
0.031457    0.820019    0.011677    -6.090350    0.586174    -99.608459    -4.983221    5.296257    -3.243104    5.632892    11.461464    -1.720372    1.070948    -17.488968    8.406415    -1.377255    -3.407462    8.793696    -3.736834    7.118893    -3.562881    -38.176662    56.794125    -39.756744    34.117409    -33.734352    -32.170521    105.190582    -9.847774    26.200003    0.173718    1.019214    8.313862    44.616379    53.599716    29.935215    -25.510527    -17.886744    65.642250    -106.678352    -3.796630    -1.888032    1.736859    0.646949    -1.337893    -6.374816    19.157177    8.609426    8.274136    -5.495305    54.511265    0.000000    0.000000    0.000000    0.975387    -1.595097    -6.657484    -2.136488    19.758526    1.233873    -2.037313    -16.058336    -31.473867    0.000000    0.000000    0.000000    
0.032069    0.824960    0.012298    -4.848155    0.329561    -100.123055    -4.798984    4.067417    -2.891480    5.278931    10.711484    -1.513258    1.234690    -17.340372    8.531754    -1.070781    -2.547640    8.898162    -3.964980    7.743224    -3.301742    -39.325138    56.248379    -37.638763    34.117409    -33.734352    -32.170521    105.190582    -9.847774    26.200003    0.232912    1.606785    7.888277    43.551651    55.952511    30.087540    -27.866199    -20.785162    64.614403    -105.531998    -3.590071    -3.616525    1.096929    1.469383    -0.889049    -5.814563    16.001616    8.948659    7.395410    -4.721337    54.856239    0.000000    0.000000    0.000000    1.080415    -0.841743    -5.973443    -1.656814    16.759527    1.131392    -2.013561    -14.992702    -32.648907    0.000000    0.000000    0.000000    
0.032532    0.828680    0.013232    -3.677946    0.062139    -100.473145    -4.563261    2.891344    -2.638204    4.936089    10.025730    -1.349065    1.416142    -16.933418    8.321205    -1.496705    -2.276699    8.730128    -4.095543    8.217259    -3.094966    -40.842781    55.631065    -35.301411    34.117409    -33.734352    -32.170521    105.190582    -9.847774    26.200003    0.304105    2.204319    7.428718    44.955788    53.300236    27.350986    -25.181864    -19.108372    68.519585    -105.455803    -3.347115    -2.355010    0.511801    1.989384    -0.642479    -5.458567    13.607776    9.175027    6.860561    -3.911669    55.169960    0.000000    0.000000    0.000000    1.000805    -0.282368    -5.272236    -1.006693    14.359285    0.735121    -2.730366    -13.224864    -34.799099    0.000000    0.000000    0.000000    
0.032491    0.831324    0.014145    -2.823071    -0.132273    -100.758385    -4.261024    1.927681    -2.493006    4.549540    9.460096    -1.230029    1.568353    -16.474344    8.207077    -1.826654    -2.049214    8.655069    -4.220681    8.796167    -2.863970    -42.379494    54.742310    -32.979126    34.117409    -33.734352    -32.170521    105.190582    -9.847774    26.200003    0.490517    2.702906    7.119436    45.015278    53.622944    26.108898    -26.145176    -19.963223    69.109581    -104.259399    -3.247038    -2.300249    0.066278    2.604090    -0.478829    -5.380163    11.775621    9.451204    6.657059    -2.655173    55.948879    0.000000    0.000000    0.000000    0.764424    0.337712    -4.489636    -0.195473    12.763352    0.068429    -2.903378    -12.428705    -35.582703    0.000000    0.000000    0.000000    
0.032682    0.832618    0.015091    -2.166868    -0.295236    -100.824448    -4.210526    1.403203    -2.415359    4.682579    8.694723    -1.177365    1.394479    -16.331841    8.253859    -1.796351    -1.452164    8.713853    -4.390318    9.167263    -2.694682    -44.116173    54.133587    -30.622395    34.117409    -33.734352    -32.170521    105.190582    -9.847774    26.200003    0.323380    3.172615    6.686641    45.482853    53.526344    24.560150    -26.723274    -20.482084    70.090080    -103.340096    -3.236387    -2.039109    -0.397584    3.190709    -0.345631    -5.189714    10.356969    9.863677    6.608994    -1.814278    56.256294    0.000000    0.000000    0.000000    0.429646    0.790360    -3.926019    0.584489    11.957635    -0.590594    -3.566976    -11.697535    -36.668591    0.000000    0.000000    0.000000    
0.032686    0.832859    0.015867    -1.803191    -0.351985    -100.715263    -3.969760    0.939793    -2.598121    4.541033    8.444860    -1.211423    1.356493    -16.168779    8.210790    -2.026991    -1.420930    8.699139    -4.465277    9.721898    -2.396779    -45.231079    53.227192    -28.897854    34.117409    -33.734352    -32.170521    105.190582    -9.847774    26.200003    0.439588    3.700292    6.285944    45.413944    52.897106    23.528620    -27.009655    -20.743504    71.156982    -102.200638    -3.496320    -1.699013    -0.836697    3.853717    -0.076219    -4.763192    9.439261    9.691885    6.811291    -1.072198    57.127785    0.000000    0.000000    0.000000    0.237447    1.207248    -3.907890    1.115983    11.945677    -1.206398    -3.647129    -11.904090    -36.579247    0.000000    0.000000    0.000000    
